<svg xmlns="http://www.w3.org/2000/svg" xmlns:xlink="http://www.w3.org/1999/xlink" xml:space="preserve" version="1.1" style="shape-rendering:geometricPrecision;text-rendering:geometricPrecision;image-rendering:optimizeQuality;" viewBox="0 0 7019 8333.75" x="0px" y="0px" fill-rule="evenodd" clip-rule="evenodd"><defs><style type="text/css">
   
    .fil0 {fill:black;fill-rule:nonzero}
   
  </style></defs><g><path class="fil0" d="M7019 1622l0 1628 -47 38 0 525c-1197,952 -2393,1903 -3590,2854 -1127,-930 -2255,-1860 -3382,-2791l0 -1646c935,-744 1870,-1487 2805,-2231l211 174 0 1646 -161 128 0 -30 -52 -43 -1519 1208 2089 1719 2300 -1829 -769 -635 -772 614 -12 -15 -12 14 -648 -535 12 -14 -19 0 0 -1619 152 -124 518 427 784 -624 324 268 372 -295c475,392 941,795 1417,1187zm-6433 2689l0 -1353 -1 -1 1 -2 0 -2 1 1 22 -26 654 560 0 1382 2100 1733 0 -1579 -3325 -2744 0 1579 548 453zm124 -1247l0 432 259 -211 -259 -221zm0 481l0 692 -109 87 625 515 0 -1334 -228 -195 -288 235zm5923 -123l-1268 993 0 -789 1256 -999 12 795zm-1230 781l269 -214 628 -499 -345 -285 -552 439 0 559zm999 -1810l275 -219 -275 -227 0 446zm-577 459l540 -429 0 -507 -540 -445 0 1382zm577 533l90 -72 0 -535 -90 72 0 535zm-87 69l49 -39 0 -535 -379 302 330 272zm-612 -505l84 -67 0 -1443 -540 -445 0 1579 456 376zm-445 -1995l323 266 0 -523 -323 257zm361 298l765 631 342 -272 -1106 -913 0 553zm1315 2027l0 -1064 -3533 2809 0 1580 3533 -2809 0 -516zm-2833 -1960l-611 -504 0 1579 611 504 0 -1579zm2880 333l-323 257 313 258 0 1072 10 -8 0 -1580zm-6687 590l975 805 1515 -1205 0 -1580 -2490 1980zm2685 -2020l-86 69 0 1580 86 -69 0 -1580zm-124 68l-33 -27 0 1579 33 27 0 -1579zm2354 672l-286 -236 0 1579 286 236 0 -1579zm-324 -237l-747 594 0 1580 747 -594 0 -1580z"/></g><text x="0" y="6682" fill="#000000" font-size="5px" font-weight="bold" font-family="'Helvetica Neue', Helvetica, Arial-Unicode, Arial, Sans-serif">Created by Dong Ik Seo</text><text x="0" y="6687" fill="#000000" font-size="5px" font-weight="bold" font-family="'Helvetica Neue', Helvetica, Arial-Unicode, Arial, Sans-serif">from the Noun Project</text></svg>