<?xml version="1.0" ?><!DOCTYPE svg  PUBLIC '-//W3C//DTD SVG 1.1//EN'  'http://www.w3.org/Graphics/SVG/1.1/DTD/svg11.dtd'><svg enable-background="new 0 0 48 48" height="48px" version="1.1" viewBox="0 0 48 48" width="48px" xml:space="preserve" xmlns="http://www.w3.org/2000/svg" xmlns:xlink="http://www.w3.org/1999/xlink"><g id="Layer_5"><path d="M32.246,1.268c-1.676,0-3.109,0.999-3.764,2.43h-3.187c-0.599-1.771-2.257-3.052-4.228-3.052   c-1.201,0-2.285,0.478-3.089,1.245H6.805v3.519h6.441c-3.146,1.982-5.744,4.755-7.489,8.059l3.677,1.5   c1.791-3.217,4.593-5.774,7.963-7.302c0.468,0.685,1.119,1.229,1.886,1.565v1.419c-4.059,0.796-7.123,4.37-7.123,8.661v28.667   h17.655V19.312c0-4.243-2.992-7.784-6.983-8.631V9.241c0.968-0.423,1.759-1.176,2.232-2.119h3.417   c0.654,1.429,2.088,2.429,3.764,2.429l9.996,0.933V0.022L32.246,1.268z M21.004,7.095c-1.134,0-2.055-0.92-2.055-2.055   c0-1.135,0.92-2.054,2.055-2.054c1.135,0,2.055,0.919,2.055,2.054C23.059,6.175,22.139,7.095,21.004,7.095z" fill="#241F20"/></g></svg>