<svg 
  xmlns="http://www.w3.org/2000/svg"
  xmlns:xlink="http://www.w3.org/1999/xlink"
  version="1.1"
  x="0px"
  y="0px"
  viewBox="0 0 95 118.75"
  enable-background="new 0 0 95 95"
  xml:space="preserve"
>
  <path
    fill="none"
    d="M41.095,66.75v8.869h24.158V66.75V39.574H41.095V66.75z M44.729,59.319c0.684,0.114,1.262,0.462,1.824,0.837  c0.184,0.122,0.359,0.255,0.574,0.408c0.129-1.023,0.145-1.995-0.016-2.961c-0.184-1.105-0.576-2.108-1.504-2.823  c-0.039-0.03-0.051-0.101-0.107-0.22c1.678,0.111,2.814,1.045,3.859,2.192c0.498-0.935,0.562-1.888,0.393-2.87  c-0.213-1.219-0.762-2.288-1.461-3.291c-0.064-0.091-0.123-0.185-0.229-0.346c1.811,0.014,2.715,1.241,3.713,2.477  c0.098-0.173,0.219-0.302,0.24-0.445c0.031-0.208,0.014-0.43-0.023-0.638c-0.16-0.884-0.379-1.76-0.498-2.648  c-0.145-1.075-0.006-2.119,0.607-3.054c0.141-0.213,0.299-0.414,0.447-0.62c0.021,0,0.043,0,0.064,0  c0.146,0.745,0.271,1.495,0.441,2.234c0.275,1.188,0.709,2.291,1.529,3.244c0.867,1.005,1.512,2.156,1.799,3.476  c0.006,0.018,0.043,0.028,0.059,0.037c0.348-1.272-0.188-2.384-0.615-3.55c0.453,0.22,0.898,0.44,1.264,0.753  c0.953,0.814,1.396,1.931,1.557,3.125c0.166,1.228,0.184,2.475,0.262,3.714c0.014,0.207,0.002,0.414,0.002,0.621  c0.039,0.016,0.078,0.029,0.117,0.043c0.164-0.173,0.357-0.326,0.486-0.522c0.543-0.821,0.529-1.754,0.484-2.702  c0.053,0.016,0.086,0.018,0.111,0.033c0.061,0.041,0.123,0.085,0.18,0.134c0.936,0.79,1.377,1.815,1.27,3.017  c-0.07,0.781-0.314,1.547-0.473,2.322c-0.049,0.24-0.072,0.486-0.113,0.777c0.604-0.16,0.758-0.615,0.996-1.053  c0.197,0.387,0.381,0.771,0.486,1.176c0.125,0.482,0.182,0.982,0.27,1.474c0,0.451,0,0.901,0,1.353  c-0.02,0.061-0.051,0.119-0.057,0.18c-0.059,0.542-0.166,1.058-0.318,1.549c-0.439,1.408-1.264,2.611-2.459,3.602  c-0.586,0.487-1.609,1.561-2.221,1.891c-0.17,0.09-2.473,0.131-2.396,0.091c0.285-0.154,0.764-0.655,1.037-0.882  c0.752-0.625,1.191-1.428,1.297-2.406c0.004-0.028,0.018-0.057,0.025-0.084c0-0.21,0-0.42,0-0.631  c-0.039-0.23-0.066-0.463-0.125-0.688c-0.049-0.188-0.135-0.369-0.227-0.549c-0.111,0.204-0.184,0.416-0.465,0.491  c0.02-0.136,0.029-0.25,0.053-0.363c0.031-0.157,0.07-0.314,0.107-0.471c0.049-0.204,0.094-0.408,0.113-0.613  c0.051-0.561-0.156-1.041-0.594-1.409c-0.027-0.022-0.055-0.044-0.084-0.062c-0.012-0.007-0.027-0.009-0.051-0.015  c0.02,0.441,0.027,0.878-0.227,1.262c-0.061,0.092-0.15,0.162-0.229,0.243c-0.018-0.007-0.035-0.013-0.053-0.02  c0-0.097,0.004-0.194-0.002-0.29c-0.037-0.579-0.045-1.162-0.121-1.734c-0.076-0.559-0.283-1.08-0.729-1.46  c-0.17-0.146-0.377-0.249-0.59-0.352c0.199,0.544,0.449,1.063,0.287,1.658c-0.008-0.005-0.025-0.009-0.027-0.018  c-0.135-0.616-0.436-1.154-0.84-1.623c-0.383-0.445-0.586-0.96-0.715-1.516c-0.078-0.345-0.137-0.695-0.205-1.043  c-0.01,0-0.02,0-0.029,0c-0.07,0.097-0.145,0.19-0.209,0.29c-0.287,0.436-0.352,0.924-0.285,1.426  c0.057,0.416,0.158,0.824,0.232,1.237c0.018,0.097,0.027,0.2,0.012,0.297c-0.01,0.067-0.066,0.128-0.111,0.208  c-0.467-0.576-0.889-1.149-1.734-1.156c0.049,0.076,0.076,0.119,0.105,0.162c0.326,0.468,0.584,0.968,0.684,1.537  c0.08,0.459,0.049,0.904-0.184,1.34c-0.488-0.536-1.02-0.972-1.803-1.023c0.027,0.056,0.031,0.088,0.051,0.103  c0.434,0.333,0.615,0.802,0.701,1.317c0.068,0.41,0.066,0.823,0.021,1.254c-0.006,0.043-0.008,0.086-0.014,0.13  c-0.066-0.048-0.125-0.09-0.182-0.13c-0.029-0.021-0.057-0.041-0.086-0.061c-0.264-0.176-0.533-0.338-0.854-0.392  c-0.184-0.03-0.355-0.005-0.516,0.134c0.123,0.079,0.234,0.148,0.346,0.223c0.047,0.029,0.086,0.062,0.127,0.096  c0.391,0.316,0.52,0.744,0.436,1.257c-0.096,0.574-0.176,1.147-0.084,1.731c0.143,0.92,1.305,2.497,1.285,2.546  c-0.037,0.091-2.766,0.057-2.684-0.147c0.041-0.104-2.391-3.41-2.738-5.387c-0.004-0.021-0.01-0.045-0.014-0.065  c-0.195-1.251-0.023-2.478,0.18-3.706c0.199-1.212-0.15-2.203-1.203-2.898c-0.236-0.156-0.479-0.307-0.74-0.475  C43.968,59.308,44.333,59.253,44.729,59.319z"
  />
  <path
    d="M77.786,7.111C70.399,8.2,68.663,9.65,61.269,10.757H57.44c-0.061-1.272-0.115-2.438-0.172-3.635  c-0.34-0.082-0.586-0.212-0.812-0.186c-1.488,0.178-2.238-0.313-2.822-1.87c-1.088-2.909-4.629-4.263-7.727-3.362  C41.114,3.1,39.208,8.968,42.7,12.887c-6.326,1.454-10.98,5.921-13.641,13.098c-1.777,4.791-2.266,9.806-2.182,14.836  c0.053,3.188-0.311,18.913-0.525,24.062l-1.775-0.134c-0.234-0.018-0.439,0.157-0.457,0.392c0,0-5.379,19.404-7.137,25.448  c6.025,0.807,11.906,1.594,17.881,2.393C34.769,85.121,34.8,65.95,34.8,65.95c0.018-0.235-0.158-0.438-0.395-0.457l-2.121-0.161  c0.061-4.287,0.072-16.652,0.215-17.508c0.047-0.292-0.115-11.547,0.906-16.861c0.279-1.452,0.639-2.866,1.127-4.219  c0.645-1.79,1.516-3.474,2.73-5c2.156-2.707,10.912-4.627,11.525-4.755c0,0.97-0.08,1.792,0.018,2.591  c0.182,1.476-0.273,2.229-1.756,2.931c-5.832,2.759-9.152,7.461-9.193,13.971C37.794,46.571,37.79,56.66,37.8,66.75  c0.006,7.643,0.02,15.285,0.027,22.928c0.004,2.709,1.225,3.883,3.92,3.887c7.23,0.01,14.461,0.006,21.693,0.004  c3.604-0.002,4.551-0.943,4.551-4.562c0.002-7.419,0.002-14.838,0-22.257c0-9.811,0-19.621,0.006-29.431  c0.004-7.135-3.164-12.213-9.682-15.204c-0.447-0.206-0.941-0.834-0.984-1.305c-0.131-1.426-0.047-0.983-0.047-2.585h4.541  c0.002,0.003,9.191,3.788,14.535,5.304c0.484,0.137-0.346-5.736-3.496-6.736c-2.99-0.949-5.984-1.879-8.98-2.804  c3.777-0.825,7.555-1.649,11.328-2.495C77.647,10.947,78.468,9.532,77.786,7.111z M47.153,10.21  c-1.611,0.018-3.162-1.556-3.115-3.165c0.045-1.598,1.453-2.973,3.061-2.987c1.74-0.016,3.08,1.358,3.043,3.12  C50.108,8.837,48.772,10.192,47.153,10.21z M65.253,39.574V66.75v8.869H41.095V66.75V39.574H65.253z"
  />
  <path
    d="M44.567,62.979c-0.203,1.229-0.375,2.455-0.18,3.706c0.004,0.021,0.01,0.044,0.014,0.065  c0.348,1.977,2.779,5.283,2.738,5.387c-0.082,0.204,2.646,0.238,2.684,0.147c0.02-0.049-1.143-1.626-1.285-2.546  c-0.092-0.584-0.012-1.157,0.084-1.731c0.084-0.513-0.045-0.94-0.436-1.257c-0.041-0.033-0.08-0.066-0.127-0.096  c-0.111-0.074-0.223-0.144-0.346-0.223c0.16-0.139,0.332-0.164,0.516-0.134c0.32,0.054,0.59,0.216,0.854,0.392  c0.029,0.02,0.057,0.039,0.086,0.061c0.057,0.04,0.115,0.082,0.182,0.13c0.006-0.044,0.008-0.087,0.014-0.13  c0.045-0.431,0.047-0.844-0.021-1.254c-0.086-0.516-0.268-0.984-0.701-1.317c-0.02-0.015-0.023-0.047-0.051-0.103  c0.783,0.052,1.314,0.487,1.803,1.023c0.232-0.436,0.264-0.881,0.184-1.34c-0.1-0.569-0.357-1.069-0.684-1.537  c-0.029-0.043-0.057-0.086-0.105-0.162c0.846,0.007,1.268,0.58,1.734,1.156c0.045-0.08,0.102-0.141,0.111-0.208  c0.016-0.097,0.006-0.2-0.012-0.297c-0.074-0.413-0.176-0.821-0.232-1.237c-0.066-0.502-0.002-0.99,0.285-1.426  c0.064-0.1,0.139-0.193,0.209-0.29c0.01,0,0.02,0,0.029,0c0.068,0.348,0.127,0.698,0.205,1.043c0.129,0.556,0.332,1.07,0.715,1.516  c0.404,0.469,0.705,1.007,0.84,1.623c0.002,0.009,0.02,0.013,0.027,0.018c0.162-0.595-0.088-1.114-0.287-1.658  c0.213,0.103,0.42,0.206,0.59,0.352c0.445,0.38,0.652,0.901,0.729,1.46c0.076,0.572,0.084,1.155,0.121,1.734  c0.006,0.096,0.002,0.193,0.002,0.29c0.018,0.007,0.035,0.013,0.053,0.02c0.078-0.081,0.168-0.151,0.229-0.243  c0.254-0.384,0.246-0.82,0.227-1.262c0.023,0.006,0.039,0.008,0.051,0.015c0.029,0.019,0.057,0.04,0.084,0.062  c0.438,0.368,0.645,0.849,0.594,1.409c-0.02,0.205-0.064,0.409-0.113,0.613c-0.037,0.156-0.076,0.313-0.107,0.471  c-0.023,0.113-0.033,0.228-0.053,0.363c0.281-0.075,0.354-0.287,0.465-0.491c0.092,0.18,0.178,0.36,0.227,0.549  c0.059,0.226,0.086,0.458,0.125,0.688c0,0.211,0,0.421,0,0.631c-0.008,0.027-0.021,0.056-0.025,0.084  c-0.105,0.979-0.545,1.781-1.297,2.406c-0.273,0.227-0.752,0.728-1.037,0.882c-0.076,0.04,2.227-0.001,2.396-0.091  c0.611-0.33,1.635-1.403,2.221-1.891c1.195-0.99,2.02-2.193,2.459-3.602c0.152-0.491,0.26-1.007,0.318-1.549  c0.006-0.061,0.037-0.119,0.057-0.18c0-0.451,0-0.901,0-1.353c-0.088-0.491-0.145-0.991-0.27-1.474  c-0.105-0.404-0.289-0.789-0.486-1.176c-0.238,0.438-0.393,0.893-0.996,1.053c0.041-0.291,0.064-0.537,0.113-0.777  c0.158-0.775,0.402-1.541,0.473-2.322c0.107-1.201-0.334-2.227-1.27-3.017c-0.057-0.049-0.119-0.093-0.18-0.134  c-0.025-0.016-0.059-0.018-0.111-0.033c0.045,0.948,0.059,1.881-0.484,2.702c-0.129,0.196-0.322,0.35-0.486,0.522  c-0.039-0.014-0.078-0.027-0.117-0.043c0-0.207,0.012-0.414-0.002-0.621c-0.078-1.239-0.096-2.486-0.262-3.714  c-0.16-1.194-0.604-2.311-1.557-3.125c-0.365-0.312-0.811-0.533-1.264-0.753c0.428,1.166,0.963,2.277,0.615,3.55  c-0.016-0.009-0.053-0.02-0.059-0.037c-0.287-1.319-0.932-2.471-1.799-3.476c-0.82-0.953-1.254-2.056-1.529-3.244  c-0.17-0.739-0.295-1.489-0.441-2.234c-0.021,0-0.043,0-0.064,0c-0.148,0.207-0.307,0.407-0.447,0.62  c-0.613,0.935-0.752,1.979-0.607,3.054c0.119,0.889,0.338,1.765,0.498,2.648c0.037,0.208,0.055,0.43,0.023,0.638  c-0.021,0.144-0.143,0.272-0.24,0.445c-0.998-1.235-1.902-2.463-3.713-2.477c0.105,0.161,0.164,0.255,0.229,0.346  c0.699,1.003,1.248,2.072,1.461,3.291c0.17,0.982,0.105,1.936-0.393,2.87c-1.045-1.147-2.182-2.081-3.859-2.192  c0.057,0.119,0.068,0.189,0.107,0.22c0.928,0.715,1.32,1.718,1.504,2.823c0.16,0.966,0.145,1.938,0.016,2.961  c-0.215-0.153-0.391-0.286-0.574-0.408c-0.562-0.375-1.141-0.723-1.824-0.837c-0.396-0.066-0.762-0.012-1.105,0.286  c0.262,0.168,0.504,0.318,0.74,0.475C44.417,60.775,44.767,61.767,44.567,62.979z"
  />
  <text
    x="0"
    y="110"
    fill="#000000"
    font-size="5px"
    font-weight="bold"
    font-family="'Helvetica Neue', Helvetica, Arial-Unicode, Arial, Sans-serif"
  >
  </text>
  <text 
    x="0"
    y="115"
    fill="#000000"
    font-size="5px"
    font-weight="bold"
    font-family="'Helvetica Neue', Helvetica, Arial-Unicode, Arial, Sans-serif">
  </text>
</svg>